<svg xmlns="http://www.w3.org/2000/svg" id="Layer_1" data-name="Layer 1" viewBox="0 0 150.78 30">
  <defs>
    <style>
      .cls-1{fill-rule:evenodd}
    </style>
  </defs>
  <path id="navn" d="M126.14 9.13L128 7.24c.75-.83 1.88-2 2.94-3.24A59.54 59.54 0 00134 9.2h-7.84zm-60.81.22c-.53 2.94-5.5 5.13-11.53 5.13h-.68c-4.29-.15-7.91-1.43-9.42-3.39a3.11 3.11 0 01-.7-2.57c.52-2.93 5.5-5.12 11.52-5.12h.68c4.22.23 7.84 1.51 9.42 3.39a3.14 3.14 0 01.71 2.56zM138 .31h-6.63c-1.36 0-3.47.08-6.48.08l-3.09 3.09-12.69 12.13c.08-.91.15-1.81.3-2.87.23-2 .45-3.54.6-4.74v-.53S100 7 95.09 7.7l-.3 3.16 6.41.23-.3 2.91c-1.81.23-5.28.53-6.78.53a22.2 22.2 0 01-5-.53 6.62 6.62 0 01-3.24-1.58A3.09 3.09 0 0184.85 10a3.93 3.93 0 01.9-2.49 7.18 7.18 0 012.71-2 16.56 16.56 0 014.3-1.28A31.16 31.16 0 0198 3.85c.68 0 1.51 0 2.41.08 2.49.07 5.43.3 10 .83l.06-2.76c-4.52-1-10.55-2-14.24-2a48.64 48.64 0 00-12.36 1.29 18.17 18.17 0 00-7.39 3.54 7.12 7.12 0 00-2 2.49 4.82 4.82 0 00-1.2-2.19 12.21 12.21 0 00-4.18-2.78A24.7 24.7 0 0062.54.54 70 70 0 0054.63 0a48.09 48.09 0 00-11.38 1.2 18.94 18.94 0 00-7.68 3.32A6.15 6.15 0 0033 9.5a6.15 6.15 0 001.21 3.55 10.51 10.51 0 004.14 2.86 27.39 27.39 0 006.86 1.88 59.69 59.69 0 008.21.61 62 62 0 008.37-.61 24.84 24.84 0 006.93-1.88 11.6 11.6 0 004.45-3.09 6.74 6.74 0 001-1.51 7.32 7.32 0 00.75 1.58 7.43 7.43 0 002.71 2.57A15.76 15.76 0 0082 17.19a39.3 39.3 0 006 .9 66.87 66.87 0 006.78.31c1.43 0 3 0 4.82-.08s4.15-.15 5.43-.23c.83-.07 1 0 2.11-.07h11.45c1.51-1.73 3-3.39 4.6-5H136a38.84 38.84 0 013.24 5h11.6zM24.19 8.3l14.62-8c-4 0-10 .23-13.42.15L12.81 7.62 13.94.39C8.21.39 9 .39 2.79.31 2.79.31.07 17.94 0 17.94h11.53l1.05-8.89c4.9 3.77 8.74 7 10.93 8.89h13.94L26.22 9.88l-2-1.58z" class="cls-1"/>
  <path d="M7.16 26.46l1.28.3A4 4 0 017 29.1a4 4 0 01-2.49.82 4.67 4.67 0 01-2.51-.6 3.77 3.77 0 01-1.4-1.81A7.07 7.07 0 010 25a5.32 5.32 0 01.6-2.56 4.28 4.28 0 011.58-1.66 4.67 4.67 0 012.34-.6 3.67 3.67 0 012.41.75 3.3 3.3 0 011.36 2l-1.21.3a2.76 2.76 0 00-1-1.51 2.79 2.79 0 00-1.58-.45 2.71 2.71 0 00-1.81.53 3.32 3.32 0 00-1 1.43A5 5 0 001.36 25a6 6 0 00.37 2.11 2.52 2.52 0 001.13 1.35 3.2 3.2 0 001.58.45 3 3 0 001.81-.6 4.85 4.85 0 00.91-1.85zM10 29.77v-9.49h6.8v1.13h-5.57v2.94h5.27v1.13h-5.27v3.16H17v1.13zM18.76 29.77v-9.49H20l5 7.46v-7.46h1.2v9.49h-1.26l-5-7.46v7.46zM30.74 29.77v-8.36h-3.09v-1.13h7.54v1.13H32v8.36zM36.47 29.77v-9.49h6.86v1.13h-5.58v2.94H43v1.13h-5.25v3.16h5.8v1.13zM45.29 29.77v-9.49h4.22a6.39 6.39 0 012 .23 1.79 1.79 0 011.05.9 3.05 3.05 0 01.38 1.43 2.5 2.5 0 01-.68 1.73 3.59 3.59 0 01-2 .91 3.16 3.16 0 01.76.45 6.25 6.25 0 01.98 1.28l1.66 2.56h-1.59l-1.28-2a15.55 15.55 0 00-.91-1.28 2.21 2.21 0 00-.6-.6.86.86 0 00-.6-.23c-.15 0-.38-.07-.68-.07h-1.43v4.22h-1.28zm1.28-5.27h2.71a6 6 0 001.36-.15 1.5 1.5 0 00.75-.6 1.54 1.54 0 00.23-.83 1.49 1.49 0 00-.46-1.13 2.07 2.07 0 00-1.5-.46h-3v3.17zM65.33 26.46l1.28.3a3.89 3.89 0 01-1.43 2.34 4 4 0 01-2.49.82 4.61 4.61 0 01-2.48-.6 3.79 3.79 0 01-1.44-1.81 7 7 0 01-.52-2.51 5.32 5.32 0 01.6-2.56 3.79 3.79 0 011.58-1.66 4.65 4.65 0 012.34-.6 3.67 3.67 0 012.41.75 3.3 3.3 0 011.36 2l-1.21.3a2.45 2.45 0 00-2.56-2 2.69 2.69 0 00-1.81.53 3.42 3.42 0 00-1.06 1.43 5.17 5.17 0 00-.3 1.81 5.8 5.8 0 00.4 2.14 2.52 2.52 0 001.13 1.35 3.2 3.2 0 001.58.45 3 3 0 001.81-.6 6.43 6.43 0 00.81-1.88zM67.74 25.18a5.24 5.24 0 011.26-3.7 4.28 4.28 0 013.24-1.35 4.65 4.65 0 012.34.6 4.4 4.4 0 011.58 1.73 5.58 5.58 0 01.55 2.54 5.68 5.68 0 01-.6 2.56 3.76 3.76 0 01-1.66 1.73 4.87 4.87 0 01-2.34.6 4.49 4.49 0 01-2.41-.67 5 5 0 01-1.58-1.74 7.44 7.44 0 01-.38-2.3zm1.28 0a3.9 3.9 0 00.91 2.71 3.27 3.27 0 004.67 0 4.09 4.09 0 00.9-2.89 5.88 5.88 0 00-.37-2A2.92 2.92 0 0074 21.64a3.18 3.18 0 00-1.66-.46 3 3 0 00-2.26.91A3.84 3.84 0 0069 25.18zM78.44 29.77v-9.49H82a8 8 0 011.44.07 3.37 3.37 0 011.2.46 2.14 2.14 0 01.75.9 2.45 2.45 0 01.29 1.29 2.74 2.74 0 01-.76 2 3.88 3.88 0 01-2.79.83h-2.41v3.87h-1.28zm1.21-5h2.48a2.69 2.69 0 001.74-.45 1.57 1.57 0 00.52-1.28 1.71 1.71 0 00-.3-1.06 1.24 1.24 0 00-.83-.53 5 5 0 00-1.2-.07h-2.41zM87.26 29.77v-9.49h6.86v1.13h-5.58v2.94h5.27v1.13h-5.27v3.16h5.8v1.13zM96.07 29.77v-9.49h1.29l5 7.46v-7.46h1.2v9.49h-1.28l-5-7.46v7.46zM105.72 29.77v-9.49H107v3.92h4.9v-3.92h1.28v9.49h-1.28v-4.44H107v4.44zM114.23 29.77l3.62-9.49h1.36l3.92 9.49h-1.44l-1.13-2.86h-4l-1 2.86zm2.77-3.84h3.24l-1-2.64c-.3-.83-.53-1.43-.68-2a14.91 14.91 0 01-.53 1.81zM128.55 26.08V25h4v3.54a8.43 8.43 0 01-1.89 1.13 4.65 4.65 0 01-2 .38 5.88 5.88 0 01-2.56-.6 3.86 3.86 0 01-1.74-1.74 5.65 5.65 0 01-.6-2.56 5.91 5.91 0 01.6-2.56 3.92 3.92 0 011.64-1.86 5.45 5.45 0 012.49-.6 5.12 5.12 0 011.88.3 3.34 3.34 0 011.28.9 5.13 5.13 0 01.75 1.59l-1.13.3a4.09 4.09 0 00-.52-1.13 2.09 2.09 0 00-.91-.68 3.51 3.51 0 00-1.28-.23 4.61 4.61 0 00-1.51.23 1.88 1.88 0 00-1 .68 6 6 0 00-.61.9 5.39 5.39 0 00-.37 1.89 4.43 4.43 0 00.45 2.11 2.65 2.65 0 001.28 1.28 3.57 3.57 0 001.81.37 3.89 3.89 0 001.58-.3 5.48 5.48 0 001.21-.68v-1.73h-2.87zM134.43 29.77v-9.49h6.86v1.13h-5.58v2.94H141v1.13h-5.28v3.16h5.8v1.13zM143.25 29.77v-9.49h1.28l5 7.46v-7.46h1.21v9.49h-1.29l-5-7.46v7.46z"/>
</svg>
