<svg height="375pt" preserveAspectRatio="xMidYMid meet" viewBox="0 0 375 375" width="375pt" xmlns="http://www.w3.org/2000/svg"><g transform="matrix(.1 0 0 -.1 0 375)"><path d="m2000 3220c-60-7-130-34-130-50 0-6 5-10 11-10 19 0 98-60 110-83l10-22-18 23c-14 17-31 23-76 26-58 4-67 0-44-23 10-10 8-11-6-5-10 3-22 14-27 24-13 24-127 53-176 44-45-8-104-43-104-61 0-7-8-12-17-11-10 1-27 0-38-1-17-1-18-3-5-11 12-8 11-10-5-8-48 3-76-4-102-27-24-21-25-24-9-25 32 0 9-13-30-16-37-3-74-28-74-50 0-7-6-17-13-21-17-10-49-91-42-104 4-5 1-9-4-9-6 0-11-7-11-16 0-15 2-15 25 0 40 26 29 8-29-51-29-30-68-83-86-119-18-35-38-62-44-59s-18 8-27 11c-15 5-14 9 5 29 20 22 23 35 17 105-2 24-2 25-16 5-8-11-20-26-26-34-7-7-14-48-17-90-5-76-16-116-31-107-13 8-48-36-59-74-13-45-8-246 7-283 6-16 11-42 11-59 0-16 7-55 16-86 14-46 18-53 25-37 4 11 8 14 8 7 1-7 6-10 12-6 7 4 10-6 9-32-4-63-1-91 9-76 7 11 10 10 15-3 9-25 7-55-4-55-5 0-10 7-10 15s-5 15-11 15c-7 0-8-11-4-29 3-17 2-38-3-48-7-12-6-28 2-48 13-31 10-65-6-65-5 0-31 23-59 50-53 53-68 60-70 33-5-66-1-95 11-88 16 10 40-20 35-44-2-12 0-21 6-21 5 0 9 16 9 35 0 38 19 48 27 15 3-11 10-20 15-20 6 0 8-7 5-14-3-8 1-29 9-45 9-17 12-36 8-42-4-8-3-9 4-5s12 1 12-6c0-10 2-10 9 1s10 10 13-5c3-13-8-31-34-56l-39-36 27-21c15-12 33-21 40-21 20 0 17-27-3-39-17-10-16-11 4-17 16-4 23-17 28-45 4-21 4-43 0-49s4-10 19-10c25 0 26 2 26 68 0 101-26 261-44 281-13 15-16 33-12 91 3 45 10 76 18 81 10 6 12 38 11 131-1 68-4 135-6 150-5 32 15 55 30 36 11-15 10-69-2-88-5-8-4-11 3-6 5 3 12 0 15-6 3-9 11-5 24 11l20 25-21 35c-11 20-24 37-28 39-13 6-9 40 5 46 9 4 9 8 1 11-7 3-10 15-7 25 4 14 0 20-11 20-9 0-16 7-16 15s6 15 13 15c9 0 13 13 11 40-2 39 5 46 39 41 4 0 7 4 7 9 0 6-5 10-11 10-8 0-8 4-2 13 6 6 13 24 17 40 3 15 12 27 19 27 24 0 53 44 81 122 31 87 79 149 139 179 32 17 52 19 109 15 62-4 68-3 56 11-11 14-11 15 7 6 32-17 138-34 148-24s-4 43-19 43c-5 0-13 2-19 3-5 2-26 6-46 9-21 4-43 14-50 23-12 15-12 16 6 9 27-11 122-24 151-20 26 2 88-26 91-43 3-16 45-58 64-65 16-6 49 23 49 43 0 5 4 8 9 5 4-3 16 3 26 14 9 10 23 16 31 13s14 0 14 6c0 17 19 13 37-9 10-11 23-20 31-20 7 0 11-4 8-9-4-5-3-17 0-26 5-13 16-16 45-13 22 2 40-1 42-6s11-5 22 2c14 7 26 7 45-3 14-7 41-16 60-20s46-14 59-22c16-11 21-11 15-2-10 16 56-28 74-49 11-14 12-14 12 1 0 10 8 17 20 17 11 0 20-4 20-8 0-5 11-14 25-20 19-9 25-9 27 1 0 6 4-8 7-33 4-25 3-49-1-55-4-5-8-19-8-31 0-13-4-26-10-29-5-3-10-19-10-35 0-23-4-28-16-23-14 5-16 1-12-25 2-18 1-32-4-32-15 0-21-52-7-62 10-7 11-11 2-14-13-6 2-64 16-64 11 0 12-62 2-75-5-5-11-32-15-59-6-48-6-49 13-32s19 17 14-3c-3-12-9-21-14-21s-9-7-9-15 6-12 15-9c18 7 22-12 31-131 10-127 7-205-10-279-15-64-32-295-20-266 4 8 14 23 23 33 9 11 20 30 26 44l10 24 11-29c14-38 3-62-20-43-13 11-16 11-16-2 0-24 29-47 59-47 28 0 71 35 71 58 0 6 20 43 45 81 73 112 112 203 120 276 12 113-24 206-73 191-15-5-19-14-17-34s-8-39-39-73c-22-26-49-58-59-73-36-52-50 1-20 76 9 24 21 46 26 49 5 4 3 15-4 26-10 17-7 36 20 117 27 83 30 102 21 134-5 20-10 55-9 77 0 37 1 38 10 15 6-14 8-33 5-42-2-10-1-20 4-23 24-15 35 208 15 288-18 69-18 70-5 62 5-3 14-20 19-38 9-30 9-29 10 18 0 28-3 57-9 65-5 8-5 17-1 20 5 3 6 19 4 37-6 35-95 139-111 129-14-8-19 44-8 97l7 37-31-30c-19-18-36-27-43-23-8 5-7 9 6 11 9 2 15 8 11 13-3 5-10 6-16 3-17-11 0 45 24 80 12 17 15 25 8 19-23-21-43-17-30 6 5 11 10 27 10 36 0 20-25 14-25-6-1-19-14-39-26-39-6 0-18 17-27 38-10 20-24 47-32 59l-15 23-11-22c-11-20-12-19-18 15-9 51-23 54-47 13-26-45-30-45-17-2 6 19 8 42 4 52-6 16-8 16-21-2-14-18-15-18-7 6 10 27 0 87-18 104-9 8-10 2-5-26 10-53-5-47-35 13-41 84-97 124-200 143-8 2-40 0-70-4zm46-81c19-22 19-22-3-10-24 12-39 31-25 31 5 0 17-10 28-21zm-336-74c14-8 21-14 16-15-5 0 19-18 54-41 34-22 60-42 57-45-2-3-56 15-118 40-68 27-104 45-89 46h25l-25 21-25 20 40-6c22-4 51-13 65-20zm474-11c10-25-1-29-14-5-6 12-7 21-1 21 5 0 12-7 15-16zm-234-73c0-5-23-33-51-63-30-32-46-43-38-28 11 22 78 100 86 100 2 0 3-4 3-9zm-207-30c-2-6 0-10 5-9 4 1 18-4 31-11 18-10 20-16 11-24-9-9-15-7-26 7-8 11-14 16-14 12 0-5-7-3-15 4-18 15-20 44-2 37 6-2 11-10 10-16zm-113-21c8-5 11-10 5-10-5 0-17 5-25 10s-10 10-5 10c6 0 17-5 25-10zm588-112c-2-32 0-58 3-58 4 0 16 21 27 48 17 37 22 43 28 29 11-29-13-90-47-122-26-24-31-26-26-10 6 18 5 18-12-2-19-23-41-30-41-14 0 5 6 14 14 20 23 19 46 99 47 165 1 34 4 48 6 32 3-16 3-55 1-88zm111 44c1-7-3-11-7-8-4 2-8 19-9 38-1 30-1 31 7 8 4-14 8-31 9-38zm-859-132c-8-5-26-10-41-10-14 0-46-13-72-29-25-17-44-24-41-17 8 21 102 64 144 65 20 1 22-1 10-9zm635-10c-3-5-16-15-28-21-21-10-21-9 2 10 25 23 36 27 26 11zm-811-75c-7-16-24-21-24-6 0 8 7 13 27 20 1 1 0-6-3-14zm956-10c0-8-9-15-19-15-11 0-21-6-24-12-4-10-7-10-18 0s-10 12 3 12c8 0 21 7 28 15s16 15 21 15 9-7 9-15zm-1013-107c-3-8-6-5-6 6-1 11 2 17 5 13 3-3 4-12 1-19zm1318-18c3-5 2-10-4-10-5 0-13 5-16 10-3 6-2 10 4 10 5 0 13-4 16-10zm252-872c-3-8-6-5-6 6-1 11 2 17 5 13 3-3 4-12 1-19zm-53-70c2-19 6-40 10-46 9-14 10-107 2-120-3-5-17-7-31-5-14 3-40-2-59-11-44-21-46-21-46 10 0 30-17 23-31-13-5-14-11-24-13-22-6 6 11 159 18 166 3 3 18 1 32-6 33-15 45-5 49 38 1 17 10 40 20 51 16 17 21 18 32 7 8-7 15-29 17-49zm58-4c-3-22-8-32-14-26-5 5-6 26-2 47 8 46 22 29 16-21zm-147-224c5-8 11-7 21 1 15 12 18 2 8-25-5-13-9-14-21-5-10 9-19 9-39-1-28-16-51-2-41 24 7 18 62 22 72 6zm-20-98c-6-16-7-16-17 2-8 14-7 21 3 27 17 10 24-4 14-29z"/><path d="m2710 1600c0-5 7-10 16-10 8 0 12 5 9 10-3 6-10 10-16 10-5 0-9-4-9-10z"/><path d="m1104 2780c-18-7-40-39-32-45 2-1 16 11 32 27 31 30 31 31 0 18z"/><path d="m942 2530c-6-11-8-21-4-24s13 4 20 14c6 11 8 21 4 24s-13-4-20-14z"/><path d="m1375 1953c-37-4-63-13-139-49-16-8-34-14-41-14-25 0-50-43-56-98-4-31-11-70-15-86-7-28-6-29 24-23 17 4 34 2 37-3 3-6 21-10 38-10 18 0 41-6 52-14 29-19 82-17 88 4 3 13 12 16 36 12 22-3 33 0 37 12 3 9 12 16 19 16 19 0 48 50 47 83-1 28 0 28 21 12 12-8 30-18 40-22 14-4 17-12 13-29-7-26 0-29 24-14 12 8 10 14-15 40-24 25-27 33-15 40 17 11 70-15 70-34 0-8 3-21 6-29 3-9-9-31-29-54-32-36-38-54-51-153-1-9-5-21-10-28-4-7-3-19 3-26 7-8 7-16 0-23-11-11-1-45 12-37 14 8 11-34-7-91-19-58-13-122 12-132 7-3 14-14 14-25 0-10-4-16-10-13s-7-1-4-9c5-13 0-15-25-10-24 5-31 3-31-9 0-8-10-17-21-20-14-4-20-11-16-21 5-11 0-13-23-6-42 12-50 19-44 38 5 15 4 15-6 2-8-10-13-11-16-3-3 6-14 21-25 34-10 12-19 28-19 35s-7 17-15 21c-8 5-18 26-23 48-4 22-13 41-20 41-25 3-27 5-13 13 12 8 10 16-8 48-13 21-29 42-37 46s-14 15-14 22c0 13-6 17-26 14-19-2-63 89-69 142-4 33-12 59-17 59-8 0-9-33-4-102 12-164 13-178 14-283 0-55 1-125 1-155 1-95 22-182 63-268l40-82-4-146c-3-116-6-148-19-157-8-7-23-33-33-60-44-118-187-263-320-326-71-33-87-44-77-54 9-9 253-13 1089-14l1077-3-80 40c-52 26-95 57-123 88-58 63-159 192-213 272-24 36-50 71-57 79-22 23-15 394 10 491 19 73 25 195 20 385-2 65 1 107 11 178 3 21 0 27-13 27-29 0-38-17-57-112-3-15-9-25-14-23-4 3-15-10-25-30-9-19-20-33-24-30-5 3-11 1-15-5-3-5-1-10 4-10 6 0 11-4 11-10 0-5-9-10-20-10-21 0-40-27-40-59 0-12-4-21-10-21-5 0-10 5-10 10 0 6-7 10-16 10-11 0-14-5-10-16 3-9 6-18 6-20 0-3 4-3 9 0s11-3 14-14 1-17-4-14c-6 3-16 0-24-6-11-10-15-10-15-1 0 7-5 9-11 6-6-4-8-10-5-13s-1-13-10-23-14-27-11-38c6-25-13-43-33-31-22 14-36 12-54-6-15-14-16-14-16 0 0 9-5 16-11 16-8 0-7 6 2 16 12 14 11 16-6 12-11-2-19-11-17-19s-8-2-21 14c-13 15-29 27-35 27-5 0-13 7-16 16-10 25-7 74 4 74 16 0 11 88-7 123-25 48-33 105-16 111 14 6 8 58-8 64-5 2-4 12 1 22 8 15 4 33-16 75-15 30-30 58-35 61-13 8-11 58 4 76 13 16 67 34 67 21 0-4-9-17-21-29s-18-27-15-33c8-13 67-8 64 5-1 5-8 8-15 6-23-5-14 14 17 36 40 30 50 28 50-12 0-43 12-52 82-60 31-4 62-14 69-22 14-17 45-19 54-3 4 6 22 8 46 4 31-5 47-2 76 16 20 13 33 17 29 11-10-16 14-15 36 1 16 12 15 15-6 40-15 17-22 35-19 50 3 13-4 32-16 46-12 13-21 29-21 36 0 6-19 18-42 25-24 7-52 16-63 21-11 4-42 9-70 9-27 1-79 2-115 3s-74-2-85-7-24-10-30-11c-41-6-73-23-108-58-40-40-40-41-39-109 2-54-1-70-13-74-11-5-13-10-5-19 10-13 28-82 37-147 3-22 9-35 15-32 6 4 8-2 3-15-4-14 0-32 11-48 11-18 13-28 6-31-6-2-9-9-6-17 3-7-15-33-40-58-44-42-47-44-91-37-34 5-53 16-80 44-37 39-41 58-25 100 6 17 6 27-1 32-6 4-5 14 4 27 9 14 14 51 14 104 1 44 3 85 5 90 2 4 4 45 4 90l-1 83-42 38c-59 55-130 69-278 55zm958-90c3-16 4-29 3-31-6-5-96 33-96 41 0 4 9 3 19-2 14-8 20-7 25 4 10 26 43 18 49-12zm-107-110c-10-10-19 5-10 18 6 11 8 11 12 0 2-7 1-15-2-18zm-839-23c25-31 15-44-24-29-16 6-23 17-23 34 0 33 19 31 47-5zm369-609c3-51 3-51-26-51-34 0-37 11-16 61 27 65 37 62 42-10zm124 15c0-5 3-6 7-3 10 11 34-30 27-47-4-10-18-16-39-16-31 0-33 2-30 28 2 15 4 41 5 57 1 29 1 29 15 11 8-11 15-24 15-30zm-70-7c0-5-4-9-10-9-5 0-10 7-10 16 0 8 5 12 10 9 6-3 10-10 10-16z"/><path d="m870 1742c0-5 9-17 20-27 22-20 26-14 10 16-11 19-30 26-30 11z"/><path d="m2030 1694c0-8 5-12 10-9 6 3 10 10 10 16 0 5-4 9-10 9-5 0-10-7-10-16z"/></g></svg>