<svg xmlns="http://www.w3.org/2000/svg" viewBox="0 0 104.96 83.28">
  <path fill="#fff" d="M99.12 26a5.52 5.52 0 00-7.06-3.73 5.49 5.49 0 00-1 10 6 6 0 007.73-1.89l-1.81-1c-1.72 1.69-3 1.87-4.2 1.37a2.89 2.89 0 01-2-2.49h8.52a6.73 6.73 0 00-.18-2.26zm-8.2.42a2.71 2.71 0 012.62-2.45 3 3 0 013 2.45zM17.28 58.35V.2a.18.18 0 000-.1.15.15 0 00-.13-.1c-.14-.08 0 .14-.23 0v58.35H.65c-.23 0-.59-.15-.65.47h16.7a2.12 2.12 0 01.21 1.4v21.76c0 .39-.15.83.24 1.29a3.86 3.86 0 00.11-1.4V60.11c0-.42-.17-.88.27-1.29h87c.19 0 .41 0 .39-.48z"/>
  <path fill="#fff" d="M87.84 32.69a.42.42 0 00.16-.07c-1.21-1.82-2.42-3.62-3.64-5.44l3.54-4.94h-2.06a1.16 1.16 0 00-1.17.64c-.6.94-1.24 1.85-1.88 2.75-.51.71-.52.7-1.56.42V19.2H79v13.45h2.32v-4.17a1.34 1.34 0 011.82.75 18.09 18.09 0 001 1.62c1.3 2.01 1.3 2.01 3.7 1.84zM43.89 19.23c-.18 1.88-.12 12.62.07 13.43h2.2v-4.17a1.36 1.36 0 011.83.74c.68 1.2 1.46 2.34 2.17 3.47h2.7l-3.65-5.47c1-1.75 2.38-3.21 3.41-5h-1.94a1.16 1.16 0 00-1.18.62c-.64 1-1.3 1.9-2 2.85a1 1 0 01-1.47.36v-6.93h-1.16c-.36 0-.66-.13-.98.1zM71.78 24.14a3.6 3.6 0 011.14-.28A4.82 4.82 0 0176 25l1.28-1.56a6.48 6.48 0 00-7-.79 3.07 3.07 0 00-1.47 3.16c.08 1.19.91 1.68 1.86 2.08a4.67 4.67 0 00.9.27c.89.17 1.79.3 2.68.5a1.26 1.26 0 011.07 1.11c0 .61-.44.88-1 1.07a3.78 3.78 0 01-2.67 0 6.68 6.68 0 01-1.93-1.26 12.77 12.77 0 00-1.44 1.61 6.85 6.85 0 006.1 1.71A3.71 3.71 0 0077 31.34c1-1.46 1-4.05-1.72-4.58-.58-.12-1.18-.18-1.75-.31a10.18 10.18 0 01-1.74-.38c-.43-.18-.77-.43-.78-.94a1 1 0 01.77-.99zM53.59 31.92c0 .27-.11.57.11.75h2.24v-1.23-4.78a2.39 2.39 0 012.3-2.43 2.43 2.43 0 012.51 1.95 6.48 6.48 0 01.25 1.53v4.06c0 .3-.12.63.13.9h2.06v-6.6a4 4 0 00-1.2-2.65 5 5 0 00-5.51-1.07 4.6 4.6 0 00-2.82 4.43c-.06 1.72-.08 3.43-.07 5.14zM56.14 14.13c.27 0 .56.09.78-.15a.34.34 0 000-.11V9.45a2.65 2.65 0 01.22-1.28 1.29 1.29 0 011.9-.58A1.44 1.44 0 0159.83 9v4.18c0 .3-.12.64.15.91h1.73V9.75a6.38 6.38 0 010-1.07 1.4 1.4 0 012.8 0 7.79 7.79 0 010 1.08v4.32h1.72c.24-.24.15-.53.15-.8V9.69a6.92 6.92 0 00-.22-1.88 2.75 2.75 0 00-2-2.13 3 3 0 00-3.46 1.2 3.13 3.13 0 00-.24-.34 2.89 2.89 0 00-3.45-.76 2.77 2.77 0 00-1.83 2.69c-.05 1.15 0 2.31 0 3.46v2.2zM86.05 14.08c.18-1.14-.06-2.25.14-3.31a1.13 1.13 0 011.43.6c.52.93 1.14 1.81 1.72 2.73a7.85 7.85 0 002.1-.07c-.86-1.54-2-2.83-2.77-4.35l2.82-3.95a9.77 9.77 0 01-1.35 0 1.32 1.32 0 00-1.44.78c-.41.68-.93 1.29-1.35 2a.85.85 0 01-1.27.36V3.34h-1.75a94.54 94.54 0 00.07 10.74zM26.56 19.57v2.56c-.43.22-.88-.05-1.18.25v1.87c.35.25.74 0 1.17.28v4.54a3.22 3.22 0 001.19 2.61A6.68 6.68 0 0030 33c.33-.6.62-1.15.92-1.69a2.12 2.12 0 00-.91-.64A2 2 0 0128.85 29a22.63 22.63 0 01-.07-3.08 2.25 2.25 0 01.14-1.4c.52-.25 1.1 0 1.64-.2v-2c-.6-.22-1.23.1-1.83-.26V19a7.89 7.89 0 00-2.17.57zM96.74 12.59a2.46 2.46 0 01-2.07.13 8.44 8.44 0 01-1.74-1A7.3 7.3 0 0091.78 13a5.44 5.44 0 005.34 1.22 2.56 2.56 0 001.36-.91 2.28 2.28 0 00-1-3.8 5.78 5.78 0 00-.69-.17c-.63-.16-1.22-.22-1.79-.34s-1-.45-1-.87.37-.88 1-1a2.59 2.59 0 011.73.25c.34.18.67.39 1 .58a6.37 6.37 0 001-1.2 5.09 5.09 0 00-3.23-1.25 3.83 3.83 0 00-2.43.79c-1.24 1-1.53 3.31.55 4a8.84 8.84 0 001.6.45 9.57 9.57 0 011.39.3.84.84 0 01.63.78.92.92 0 01-.5.76zM46.27 14.08h1.48a2.18 2.18 0 00.11-1.08V9.53a2 2 0 114 0V14.09c.67 0 1.22.15 1.76-.15V8.78a2.91 2.91 0 00-1.2-2.36A4 4 0 0049 5.66 3.39 3.39 0 0046.11 9v4.3c0 .24-.11.53.16.78zM66.94 32.68a99.19 99.19 0 00-.06-10.4h-2v10.45h1.6c.16-.01.32-.04.46-.05zM80.58 14v-1-4.05c0-1.35.56-1.65 1.86-1.32A5.49 5.49 0 0083 5.84c-1.13-.49-1.33-.45-2.56.51-.06-.18-.11-.36-.17-.57h-1.5v8.34a7.37 7.37 0 001.81-.12zM52.55 70.79c.12-.92-.24-1.84-.07-2.81.83 1.18.91 2.68 1.87 3.84.8-1.27 1-2.69 1.78-3.86a19.36 19.36 0 01-.08 2.31 1.17 1.17 0 01-.65 1.25 2.33 2.33 0 001.78 0 1.32 1.32 0 01-.48-1.28v-1.66c0-.63-.13-1.31.72-1.84a3.87 3.87 0 00-1.55 0c-.54 1.23-.89 2.55-1.6 3.84-.69-1.35-1-2.71-1.66-3.94-.42.07-.82-.1-1.27.18.85.65.52 1.55.52 2.37s.34 1.7-.59 2.39a4.17 4.17 0 001.79 0c.07-.4-.57-.33-.51-.79zM77.73 71.63c0-.4-.32-.34-.35-.47a4.19 4.19 0 01.06-2.33.68.68 0 01.66-.43.73.73 0 01.67.58 9.9 9.9 0 01.12 1.88c.08.52-.71.22-.58.78a2.79 2.79 0 002-.24c-1.11 0-.82-.62-.85-1.1s0-.72 0-1.07a1.24 1.24 0 00-.75-1.23 1.09 1.09 0 00-1.3.3 2.88 2.88 0 01-.27.22c-.29-.44-.69-.75-1.19-.58a1.77 1.77 0 01-1.32 0 .83.83 0 00-.84.2c.8.44.58 1.14.6 1.78s.08 1.25-.54 1.71a3.92 3.92 0 001.41.11.83.83 0 00.29-.1c.12-.44-.44-.31-.44-.61v-2c0-.45.44-.52.8-.56a.52.52 0 01.59.48c0 .92.45 1.91-.54 2.74a3.86 3.86 0 001.77-.06zM75.29 78.65c0-1.55-.83-2-2.26-1.4-.08 0-.16.18-.33-.06v-1.75c-.31-.21-.59-.11-.86-.13a.29.29 0 00-.29.15A1.82 1.82 0 0172 77v2a2 2 0 01-.49 1.7 3.53 3.53 0 001.65 0c.08-.48-.47-.32-.45-.69v-1.79a.86.86 0 01.92-.74c.49 0 .94.24.93.7 0 .84.39 1.77-.56 2.48a5.28 5.28 0 001.91.1c-.63-.71-.63-.71-.63-1.53.02-.18.02-.38.01-.58zM79.84 79.53a6.87 6.87 0 00-.08-1.43c-.27-1-.84-1.36-1.83-.95-.14.06-.24.39-.45.09-.33-.46-.75-.21-1.19-.21a3.42 3.42 0 010 3.7 3.4 3.4 0 001.65 0c.08-.47-.52-.36-.46-.79s0-1.12 0-1.67.4-.67.8-.76a.77.77 0 01.81.71c0 .84.38 1.78-.54 2.48a2.59 2.59 0 002.06-.23c-.89-.04-.76-.47-.77-.94zM43.72 79.53a6.73 6.73 0 00-.08-1.42c-.27-1.06-.84-1.37-1.83-1-.14.06-.24.39-.45.09-.33-.46-.75-.21-1.19-.21a3.38 3.38 0 010 3.64 2.23 2.23 0 001.67-.07c-.16-.31-.62-.43-.52-.92a9.52 9.52 0 000-1.31.94.94 0 01.8-.89.87.87 0 01.83.84v1.19c0 .59 0 .59-.6 1.21a2.91 2.91 0 002-.18c-.75-.07-.62-.5-.63-.97zM38.27 69a1.2 1.2 0 00-1.15-1.14c-.44 0-.73.27-1.1.4-.22-.51-.65-.41-1.06-.36-.07 0-.12.08-.29.22.35.28.8.51.7 1.08a2.6 2.6 0 000 1.3c.28.68-.63.6-.62 1.14a3.6 3.6 0 001.79-.07c-.06-.47-.59-.26-.6-.59a13.52 13.52 0 010-1.91.9.9 0 011-.68.68.68 0 01.63.84c-.07.8.35 1.7-.53 2.39a5.25 5.25 0 001.81 0c-.57-.6-.57-.6-.57-1.28 0-.44.03-.88-.01-1.34zM28.82 78.26c-.36-.16-.76-.21-1.13-.36s-.87-.33-.76-.89.52-.67 1-.71a1.05 1.05 0 011.19.57c.08.17.09.41.37.36.22-.76.23-.78-.06-1a2.21 2.21 0 00-2.13-.34c-.68.26-1 .6-1 1.18a1.13 1.13 0 00.84 1.15c.33.14.66.26 1 .37.71.25 1 .58.93 1s-.69.76-1.36.67a1 1 0 01-.85-.55c-.08-.16-.06-.41-.43-.36a.73.73 0 00.31 1.13 2.46 2.46 0 001.84.25c.54-.18 1-.41 1.13-1.08a1.34 1.34 0 00-.89-1.39zM61 71.73c.21-.06.47.07.64-.19-.84-1.1-.13-2.43-.51-3.66-.37.06-.72-.11-1 .12-.15.41.41.33.42.6a15.13 15.13 0 010 2 .81.81 0 01-1.56-.07 4.58 4.58 0 010-.83V68a1.2 1.2 0 00-1.19 0 2.13 2.13 0 01.39 1.53 5.62 5.62 0 00.16 1.29 1.16 1.16 0 001.37.84c.22 0 .41-.25.63-.31s.29.47.65.38zM72.25 71.66c.12.17.59.16 1-.18-.74-.38-.49-1.06-.51-1.66s0-1.25 0-1.94c-.47.06-.82-.11-1.18.13 0 .37.34.31.38.47a5.77 5.77 0 010 2.23c0 .07-.09.14-.15.19a.81.81 0 01-.86.26.84.84 0 01-.57-.82V68a1.06 1.06 0 00-1 0c-.14.33.3.43.27.73a5.77 5.77 0 000 .83 9.13 9.13 0 00.15 1.17 1.15 1.15 0 001.6.92c.33-.12.54-.44.87.01zM96.65 77.1c.41.6.44.61.18 1.25-.16.4-.11.92-.64 1.24 0-.91-1-1.59-.21-2.53a3.48 3.48 0 00-1.54 0c.21.46.58.76.7 1.21s.36 1 .53 1.44c.46 1.25.4 1.45-.83 2.33a.86.86 0 001.3-.27 5 5 0 00.5-1.07 21.49 21.49 0 011.5-3.62 2.18 2.18 0 00-1.49.02zM60 75.85c0 .36-.16.69.18.91.63-.55.63-.55 1.44-.32v3.8c-.15.05-.26.07-.37.12s-.22.09-.13.41a3.9 3.9 0 002-.22c-1.14-.1-.84-.8-.85-1.34v-2.92c.51 0 1-.28 1.26.38.12.24.45.13.51-.16a.62.62 0 00-.1-.66zM43.46 69.58c-.15 0-.32 0-.47-.08a.8.8 0 01-.55-.56c.69-.7.69-.7 2.08.26-.08-.45.06-.74-.17-1a1.85 1.85 0 00-2.29.08.91.91 0 00.21 1.42 6.63 6.63 0 001 .33.82.82 0 01.65.6c-.76.76-.94.75-1.64 0-.06-.07-.21-.07-.32-.1a.8.8 0 000 .93 6.65 6.65 0 001 .25 1.31 1.31 0 001.52-.84c.18-.65-.13-1.03-1.02-1.29zM87.9 71.59c-.56-.57-.57-.57-.57-1.14v-1.89c.28-.29.71 0 .73-.47s-.54-.08-.64-.25c-.37-1 .49-1 1-1.41-1-.28-1.32-.13-1.63.65-.14.36-.31.71-.55 1.24.06.13.52 0 .46.44-.15.95.4 2-.59 2.87a3.58 3.58 0 001.79-.04zM64.76 20.18a1.19 1.19 0 001.14 1.27 1.3 1.3 0 00.06-2.6 1.22 1.22 0 00-1.2 1.33zM63.27 68.48a.94.94 0 01.9.09c.21.12.13.5.57.47.1-.76.1-.76-.14-.91a1.8 1.8 0 00-1.91.06.85.85 0 00.05 1.54 3 3 0 001.12.36.56.56 0 01.49.59c0 .38-.34.5-.68.52a.79.79 0 01-.81-.38.4.4 0 00-.54-.22c-.11.31-.15.65.24.86a1.84 1.84 0 001.6.16c.45-.19.89-.43.89-1s-.38-.75-.82-.9l-1-.36a.43.43 0 01-.31-.45.52.52 0 01.35-.43zM47.09 79.83a.85.85 0 01-1.12.38 1 1 0 01-.57-1.08 4.26 4.26 0 01.06-.95.92.92 0 011.54-.45c.17.13.09.5.53.46a.54.54 0 00-.08-.85 1.64 1.64 0 00-2.57.62 2.7 2.7 0 00-.05 1.75 1.48 1.48 0 001.52 1.1c.71 0 1-.28 1.37-1.13-.27-.09-.45-.13-.63.15zM70 80.12a.87.87 0 01-1.15-.12 2.33 2.33 0 010-2.15.94.94 0 011.15-.24.75.75 0 01.24.26c.08.18.13.38.43.31a.53.53 0 000-.8 1.66 1.66 0 00-2.54.41 2.41 2.41 0 00-.21 1.39 1.58 1.58 0 001.29 1.62c.75.14 1.29-.2 1.74-1.08-.61-.33-.65.28-.95.4zM33.08 77.25a1.72 1.72 0 00-1.69-.1 2.05 2.05 0 00.16 3.57 1.28 1.28 0 001.8-1.08c-.36-.1-.45.24-.66.39a.87.87 0 01-1.49-.44 2.18 2.18 0 010-1.29.91.91 0 011.62-.48c.16.15.22.43.59.37a.63.63 0 00-.33-.94zM85.68 79.49a4.59 4.59 0 000-.83v-3.33c-.49 0-.87-.14-1.23.17.64.48.64.48.65 1.14s0 1.59 0 2.38 0 1.26-.83 1.68a3.53 3.53 0 002.06-.1.92.92 0 01-.65-1.11zM48.57 70.06a6.63 6.63 0 000-1.18 1.17 1.17 0 00-1.5-.95 1.3 1.3 0 00-.7.41c-.3-.66 0-1.39-.21-2.1a1.61 1.61 0 00-1.37.35c1 0 .88.62.88 1.13v2.5c0 .84 0 .8-.64 1.37a3.23 3.23 0 001.82 0c0-.49-.54-.29-.54-.55 0-.91-.41-1.9.45-2.66 1 .07 1.14.14 1.16 1 0 .75.19 1.55-.7 2.25a6.16 6.16 0 001.88-.09 1.82 1.82 0 01-.53-1.48zM35.39 77.05a1.66 1.66 0 00-1.21.06c.5.64.53.64.49 1.71 0 .61.28 1.33-.7 1.88a4.16 4.16 0 002 0c-.53-.6-.54-.6-.54-1.26s-.04-1.58-.04-2.39zM41.13 71.49c-.61-.2-.69-.59-.67-1.11v-2.46c-.5 0-.88-.14-1.25.15 1.19.9.47 2.06.65 3-.19.29-.7.1-.51.68a3.76 3.76 0 001.78-.26zM34.68 75.63c0 .21 0 .38.29.39s.44-.08.42-.38a.31.31 0 00-.35-.33c-.24-.01-.35.09-.36.32zM40.21 66.91c.26 0 .26-.23.25-.43s-.14-.24-.3-.24-.26.23-.25.43a.23.23 0 00.3.24zM31.33 26.7a5.41 5.41 0 002.82 5.59 5.93 5.93 0 007.69-1.91l-1.76-1c-2.81 2.39-5.35 2-6.22-1a12.15 12.15 0 012.82-.12h5.65a5.3 5.3 0 000-1.59 3.7 3.7 0 00-.1-.58 5.57 5.57 0 00-7-3.86 5.51 5.51 0 00-3.9 4.47zm5.27-2.76a3 3 0 013.07 2.45H34a2.8 2.8 0 012.6-2.45zM99 49.38c-.1-2.45.14-4.83-.18-7.21a3.56 3.56 0 00-2.82-3.1 3.49 3.49 0 00-3.79 1.55 4.79 4.79 0 00-1.58-1.35 3.7 3.7 0 00-5.22 3.26c-.07 1.63 0 3.26 0 4.9v2h2.09a1.55 1.55 0 00.11-1v-5.5a1.74 1.74 0 011.55-1.81 1.77 1.77 0 011.8 1.56 7.49 7.49 0 01.17 1.77v5a6.81 6.81 0 002.17-.08v-.77-5.38c0-1.42.73-1.95 1.71-2s1.68.81 1.7 2v6.23a7.59 7.59 0 002.29-.07zM39.53 49.36v-6.72a3.51 3.51 0 00-3-3.59 3.42 3.42 0 00-3.75 1.62 2.77 2.77 0 00-1.6-1.44A3.7 3.7 0 0026 42.76v6.68h2.18v-5.53a7.15 7.15 0 01.06-1.31 1.73 1.73 0 011.68-1.42 1.79 1.79 0 011.62 1.36 4.34 4.34 0 01.06 1v5c0 .31-.11.64.12.93h2.1a2.63 2.63 0 00.09-1.1v-5c0-1.3.72-2.16 1.72-2.14s1.65.84 1.66 2.19v6.08a7.58 7.58 0 002.24-.14zM50.45 39.27h-2.13v5.61a2.46 2.46 0 01-2.79 2.64 2.4 2.4 0 01-2-2.43v-4.9c0-.3.11-.63-.15-.94h-2.2v6a4.45 4.45 0 00.4 1.75A4.56 4.56 0 0047 49.65a4.22 4.22 0 003.55-4.29v-4.42a6.31 6.31 0 00-.1-1.67zM55.91 47.89A6.12 6.12 0 0153 46.43 6.48 6.48 0 0051.64 48a6.19 6.19 0 003.24 1.63 5.84 5.84 0 003.93-.52 3.34 3.34 0 001.68-3.3 2.61 2.61 0 00-2.38-2.16c-.31 0-.62-.13-.92-.2-.74-.16-1.48-.29-2.21-.5a.89.89 0 01-.68-.74 1 1 0 01.5-1 2.21 2.21 0 011.11-.38 3.89 3.89 0 012.25.65c.24.14.41.39.79.34a3.88 3.88 0 001-1.45 4.94 4.94 0 00-1.89-1.06 5.25 5.25 0 00-4.57.34 3 3 0 00-1.44 3.17c.14 1.25 1.08 1.71 2.06 2a10.44 10.44 0 002.43.54 1.77 1.77 0 011.72 1.19 2.14 2.14 0 01-2.35 1.34zM74.37 39.28v7a3 3 0 00.9 1.9 4.57 4.57 0 003.8 1.61 4.35 4.35 0 004.45-4.44V40.1c0-.27.09-.56-.16-.78h-2v5.78A2.45 2.45 0 0179 47.54a2.4 2.4 0 01-2.44-2.4v-5.88a10.17 10.17 0 00-2.19.02zM67.77 39a5.4 5.4 0 00-2.72 10.4c2.29.83 5.59.05 6.7-2.26a7.51 7.51 0 00-1.66-.87c-1.85 1.51-2.82 1.82-4.18 1.24A2.88 2.88 0 0164 45.16h8.4A5.42 5.42 0 0067.77 39zm-3.67 4.28a2.87 2.87 0 012.73-2.34 3 3 0 012.94 2.35zM32.37 13.47c.24.13 0 .47.3.61h1.44a107.77 107.77 0 000-10.79 3.77 3.77 0 00-1.62.14v3.11C30 5 28 5.27 26.3 7.22a4.56 4.56 0 00.05 5.72c1.38 1.69 3.65 1.89 6.02.53zM29.9 7.34A2.61 2.61 0 0132.51 10a2.62 2.62 0 11-5.24 0 2.6 2.6 0 012.63-2.66zM70.6 14.17a4.39 4.39 0 004.45-.82c0 .27.08.47.15.81a10.12 10.12 0 001.74-.16V5.77a6.51 6.51 0 00-1.77 0c0 .29-.08.53-.11.77a4.56 4.56 0 00-5.3-.34 4.68 4.68 0 00-2 4.55 4.18 4.18 0 002.84 3.42zm1.69-6.83a2.67 2.67 0 110 5.32A2.75 2.75 0 0169.64 10a2.69 2.69 0 012.65-2.66zM42.51 13.4c.14.2 0 .49.25.72A5.38 5.38 0 0044.4 14a55.41 55.41 0 00-.1-8.25h-1.65c0 .27-.08.5-.14.82a4.18 4.18 0 00-5.83.31 4.46 4.46 0 00-.24 6 4.31 4.31 0 006.07.52zM40 7.34A2.71 2.71 0 0142.63 10a2.64 2.64 0 11-5.28 0A2.64 2.64 0 0140 7.34zM57.47 79.3c.13-.29.32-.57 0-.9-.54.08-.34.74-.78 1-.34-.39-.68-.8-1-1.17.31-.33.55-.59.78-.86a.79.79 0 00.08-1 1.34 1.34 0 00-1.55-.51 1.1 1.1 0 00-.69 1.35 6 6 0 00.4.86 4.72 4.72 0 00-.5.5 1.27 1.27 0 00.53 2.11 1.52 1.52 0 001.27 0 .92.92 0 011.09.07.43.43 0 00.57-.16c-.5-.33-.43-.8-.2-1.29zm-2.24-2.9c.49-.29.7.1.91.42a1 1 0 01-.78.82c-.46-.64-.52-1-.13-1.24zm-.51 3.6c-.38-.44-.26-.84.44-1.46.16.17.34.33.49.52s.41.57.61.85c-.76.5-1.14.52-1.54.09zM28.55 66.74a7.66 7.66 0 00-2.48 0 1.78 1.78 0 01.52 1.58v1.9c0 .74 0 .74-.64 1.47a24.24 24.24 0 002.44 0 1.88 1.88 0 001.72-1.25 3.82 3.82 0 00.1-2.1 1.93 1.93 0 00-1.66-1.6zm.88 3.65c-.39.92-1.21.86-2.15.82v-3.94a1.73 1.73 0 012 .52 2.7 2.7 0 01.15 2.6zM93.65 77c-.29-.11-.34.12-.46.33-1.16-.53-1.78-.43-2.19.38a2.57 2.57 0 00-.28 1.61c.2 1.21.92 1.63 2.13 1.26.11 0 .23-.07.32.06-.23 1-.38 1.15-1.29 1-.26 0-.52-.26-.63.18 1.5.8 2.52.26 2.55-1.36v-3.34c-.01 0-.11-.05-.15-.12zm-.41 1.91v.36c0 .58-.32.93-.79 1a.89.89 0 01-1-.79 2.15 2.15 0 01.09-1.39.84.84 0 01.89-.62.92.92 0 01.82.86 5.8 5.8 0 01-.01.61zM34 69.27a1.31 1.31 0 00-.5-1.14 1.86 1.86 0 00-2.1.16c-.18.17-.19.43.2.63.35-.39.8-.74 1.38-.4a.7.7 0 01.32 1h-1a1.15 1.15 0 00-1.12.74 1 1 0 00.19 1 1.21 1.21 0 001.41.3l.63-.29c.11.14.11.35.3.37a.6.6 0 00.57-.12 5.15 5.15 0 01-.28-2.25zm-1.66 1.94a.55.55 0 01-.53-.39.53.53 0 01.33-.67 2 2 0 011.24-.05c-.08.73-.5 1.17-1.04 1.11zM64.63 77.41a2.45 2.45 0 00-.15 2.85 1.52 1.52 0 001.38.54c.41-.07.9-.08 1.13-.71-.61-.09-1.07.4-1.57.14a1.07 1.07 0 01-.57-1.35H67c.19-.34 0-.56 0-.79a1.41 1.41 0 00-2.37-.68zm.21 1a.8.8 0 01.77-.88c.47 0 .74.29.93.88zM68.58 71.09c-.22-.23-.43 0-.65 0-1 .25-1.34 0-1.41-1.29h2.34c-.07-.39-.13-.58-.14-.77a1.42 1.42 0 00-2.48-.66 2.51 2.51 0 000 2.86 1.54 1.54 0 002.34-.14zm-1.25-2.69a.79.79 0 01.8.84 7.53 7.53 0 01-1.64.09c.06-.63.4-.92.84-.93zM88.57 77a1.44 1.44 0 00-1.5.76 2.34 2.34 0 000 2.28 1.44 1.44 0 001.48.79c.9-.06 1.44-.75 1.45-1.84s-.51-1.93-1.43-1.99zm.83 2.35a1.23 1.23 0 01-1 1c-.45 0-.82-.47-.88-1.09v-.35c0-.86.37-1.42.93-1.39s1 .58 1 1.38a2.43 2.43 0 01-.05.43zM85.08 68.45a1.56 1.56 0 00-2-.33 1.72 1.72 0 00-.78 1.63 1.78 1.78 0 00.79 1.75 1.56 1.56 0 002-.36 2.56 2.56 0 00-.01-2.69zm-.21 1.69a1.2 1.2 0 01-1.05 1.08c-.45 0-.81-.48-.87-1.1v-.36c0-.85.39-1.4 1-1.37s1 .6 1 1.39c-.08.12-.07.22-.08.36zM82.58 77a1.42 1.42 0 00-1.49.77 2.34 2.34 0 000 2.28 1.45 1.45 0 001.49.78c.9-.07 1.43-.76 1.44-1.85s-.51-1.93-1.44-1.98zm.84 2.35a1.23 1.23 0 01-1 1c-.45 0-.82-.47-.88-1.09v-.35c0-.86.37-1.41.93-1.39s1 .58 1 1.38a2.43 2.43 0 01-.05.43zM49.49 77.07a2.05 2.05 0 00-.9 2.83 1.7 1.7 0 002.44.66.26.26 0 00.14-.38c-1.8.13-2 0-2-1.26h2.2c.05-1.46-.84-2.28-1.88-1.85zm-.38 1.29c.14-.55.37-.93 1-.87a.65.65 0 01.64.84 3.64 3.64 0 01-1.64.03zM37 77.42a2.22 2.22 0 00-.2 2.73 1.69 1.69 0 002.23.43c.21-.1.3-.22.15-.44-1.59.29-1.85.14-2-1.23h2.33a3.5 3.5 0 000-.75 1.44 1.44 0 00-2.51-.74zm.18 1c.08-.55.32-.91.9-.89s.72.26.7.89z"/>
</svg>
