<svg height="34" viewBox="0 0 180 34" width="180" xmlns="http://www.w3.org/2000/svg"><g fill="#fff"><path d="m39.61 30.17a1.32 1.32 0 0 0 1.46-1.26v-.91c0-.78-.42-1.14-1.55-1.65l-3.42-1.58c-2.2-1-3.5-1.6-3.5-3.68v-2a3.39 3.39 0 0 1 3.5-3.29h6.95a.42.42 0 0 1 .44.41v2a.42.42 0 0 1 -.44.41h-5.49a1.31 1.31 0 0 0 -1.46 1.26v.78c0 .82.64 1 1.61 1.46l3.18 1.57c2.48 1.14 3.66 1.91 3.66 4v2.11a3.57 3.57 0 0 1 -3.7 3.3h-8.08a.42.42 0 0 1 -.44-.42v-2.1a.42.42 0 0 1 .44-.41z"/><path d="m51.84 30.12a.4.4 0 0 0 .41.43h1.62a.43.43 0 0 1 .44.43v1.66a.43.43 0 0 1 -.44.43h-6.93a.43.43 0 0 1 -.44-.44v-1.63a.43.43 0 0 1 .44-.43h1.3a.4.4 0 0 0 .4-.43v-7.31a.41.41 0 0 0 -.41-.43h-.87a.43.43 0 0 1 -.43-.44v-1.65a.43.43 0 0 1 .43-.43h4a.43.43 0 0 1 .43.43zm-1.79-15.52a2 2 0 1 1 -1.92 2 2 2 0 0 1 1.92-2z"/><path d="m93.65 27.06a.41.41 0 0 1 -.4.44h-7.25v.41c0 1.63 1.38 2.63 3.33 2.63h3.36a.43.43 0 0 1 .44.43v1.68a.42.42 0 0 1 -.44.43h-3.89c-3.41 0-6-1.78-6-5.3v-3.4c0-2.68 1.24-4.77 5.58-4.77 3.71 0 5.22 1.87 5.22 4.15zm-7.65-2.22c0 .24.08.38.35.38h3.74a.4.4 0 0 0 .41-.43v-.6c0-1.22-.52-2.06-2.22-2.06-1.9 0-2.28.92-2.28 2.11z"/><path d="m97.81 22.84a.41.41 0 0 0 -.41-.44h-.87a.43.43 0 0 1 -.43-.4v-1.68a.43.43 0 0 1 .43-.44h6.61a3.36 3.36 0 0 1 3.44 3.38v1a.43.43 0 0 1 -.43.43h-2.09a.4.4 0 0 1 -.4-.43v-.65a1.27 1.27 0 0 0 -1.44-1.25h-.81a.41.41 0 0 0 -.41.44v7.28a.41.41 0 0 0 .41.44h2.49a.43.43 0 0 1 .43.43v1.65a.43.43 0 0 1 -.43.44h-7.37a.43.43 0 0 1 -.43-.44v-1.6a.43.43 0 0 1 .43-.43h.87a.41.41 0 0 0 .4-.44z"/><path d="m125.11 22.84a.4.4 0 0 0 -.41-.43h-.86a.43.43 0 0 1 -.44-.44v-1.65a.43.43 0 0 1 .44-.43h6.61a3.36 3.36 0 0 1 3.43 3.38v1a.43.43 0 0 1 -.43.44h-2.08a.41.41 0 0 1 -.41-.44v-.65c0-.81-.62-1.24-1.44-1.24h-.81a.41.41 0 0 0 -.41.43v7.29a.41.41 0 0 0 .41.43h2.49a.43.43 0 0 1 .44.43v1.66a.43.43 0 0 1 -.44.43h-7.36a.43.43 0 0 1 -.44-.44v-1.61a.43.43 0 0 1 .44-.43h.86a.4.4 0 0 0 .41-.43z"/><path d="m142.37 23.76c0-1-1.05-1.62-2.44-1.62s-3.74.35-3.93.35-.26-.08-.26-.3v-1.81c0-.17 0-.38.29-.44a33.71 33.71 0 0 1 3.82-.32c3.2 0 5.72.95 5.72 4.17v6.07a.62.62 0 0 0 .62.7h.11a.43.43 0 0 1 .43.44v1.65a.43.43 0 0 1 -.43.43h-1c-1.43 0-2.11-.43-2.41-1.46 0-.16-.13-.22-.22-.22a.26.26 0 0 0 -.24.19c-.41 1-1.08 1.49-2.79 1.49h-1.11a3.42 3.42 0 0 1 -3.53-3.41v-.57c0-2 1.48-3.14 3.43-3.55l4-.84zm-2.06 6.8c1.84 0 2.06-1 2.06-2.73v-.9l-3 .76a1.46 1.46 0 0 0 -1.17 1.44v.27c0 .73.62 1.16 1.44 1.16z"/><path d="m161.69 18.51a2 2 0 1 0 -1.93-2 2 2 0 0 0 1.93 2z"/><path d="m165.5 30.57h-1.62a.41.41 0 0 1 -.41-.44v-9.8a.43.43 0 0 0 -.43-.44h-9.31a.44.44 0 0 1 -.44-.43v-.25a1.82 1.82 0 0 1 1.82-1.81h.89a.43.43 0 0 0 .43-.43v-1.68a.4.4 0 0 0 -.4-.41h-1.57c-2.68 0-4.36 1.06-4.36 3.66v.94a.41.41 0 0 1 -.41.41h-1.35a.44.44 0 0 0 -.44.44v1.67a.44.44 0 0 0 .44.43h1.32a.44.44 0 0 1 .44.43v9.81a.43.43 0 0 0 .43.43h2.33a.43.43 0 0 0 .43-.43v-9.85a.41.41 0 0 1 .41-.41h6.17a.41.41 0 0 1 .41.44v7.28a.4.4 0 0 1 -.41.43h-1.3a.43.43 0 0 0 -.43.44v1.65a.43.43 0 0 0 .43.43h6.93a.43.43 0 0 0 .44-.43v-1.65a.43.43 0 0 0 -.44-.43z"/><path d="m63.49 26.41a.7.7 0 0 1 -.19-.41.72.72 0 0 1 .19-.41l3.93-4.9a.75.75 0 0 0 .19-.46c0-.21-.19-.35-.49-.35h-2c-.65 0-.84.16-1.3.76l-2.95 3.74-.16.21h-1.06v-7a.43.43 0 0 0 -.44-.43h-2.35a.4.4 0 0 0 -.41.43v15.05a.4.4 0 0 0 .41.43h2.35a.43.43 0 0 0 .44-.43v-5.24h1a4.67 4.67 0 0 0 .59.85l3.44 4.39a1 1 0 0 0 1 .43h2.25c.3 0 .49-.13.49-.35a.82.82 0 0 0 -.19-.46z"/><path d="m77 26.41a.7.7 0 0 1 -.19-.41.67.67 0 0 1 .19-.4l4-4.91a.75.75 0 0 0 .19-.45c0-.22-.19-.36-.49-.36h-2c-.65 0-.84.17-1.3.76l-3 3.74-.16.21h-1.04v-7a.43.43 0 0 0 -.43-.43h-2.36a.4.4 0 0 0 -.41.43v15.05a.4.4 0 0 0 .41.43h2.35a.43.43 0 0 0 .44-.43v-5.23h1a4.62 4.62 0 0 0 .59.84l3.44 4.39a1 1 0 0 0 1 .43h2.25c.3 0 .49-.13.49-.35a.85.85 0 0 0 -.19-.46z"/><path d="m179.81 32.27-4.69-5.85a.74.74 0 0 1 -.19-.4.76.76 0 0 1 .19-.41l3.93-4.9a.75.75 0 0 0 .19-.46c0-.22-.19-.35-.48-.35h-2c-.64 0-.83.17-1.3.76l-2.95 3.74a1.37 1.37 0 0 0 -.15.21h-1.12v-7.18a.43.43 0 0 0 -.44-.43h-2.35a.4.4 0 0 0 -.41.43v15.22a.4.4 0 0 0 .41.43h2.35a.43.43 0 0 0 .44-.44v-5.22h1a4.62 4.62 0 0 0 .59.84l3.44 4.39a1 1 0 0 0 1 .44h2.25c.3 0 .49-.14.49-.36a.85.85 0 0 0 -.2-.46z"/><path d="m114.83 18.88a.41.41 0 0 0 -.41-.43h-4.17a.44.44 0 0 1 -.44-.44v-1.89a.43.43 0 0 1 .44-.44h12.5a.43.43 0 0 1 .44.44v1.88a.44.44 0 0 1 -.44.44h-4.16a.41.41 0 0 0 -.42.43v13.79a.43.43 0 0 1 -.43.44h-2.5a.41.41 0 0 1 -.41-.44z"/><path d="m45.25 6.15c0-.51-.54-.83-1.24-.83s-1.91.18-2 .18-.14 0-.14-.15v-.92c0-.09 0-.2.16-.23a17.43 17.43 0 0 1 1.97-.2c1.63 0 2.91.48 2.91 2.13v3.13a.33.33 0 0 0 .32.37h.06a.22.22 0 0 1 .22.22v.84a.22.22 0 0 1 -.22.22h-.5c-.73 0-1.08-.22-1.23-.75a.25.25 0 0 0 -.07-.11c-.1 0-.14 0-.17.1-.2.53-.55.76-1.42.76h-.6a1.74 1.74 0 0 1 -1.82-1.74v-.29a1.88 1.88 0 0 1 1.75-1.81l2-.43zm-.8-5.25a1.4 1.4 0 1 1 -1.4 1.39 1.39 1.39 0 0 1 1.4-1.39zm-.25 8.73c.94 0 1-.53 1-1.4v-.46l-1.55.39a.74.74 0 0 0 -.59.73v.11c0 .37.32.59.73.59zm.25-6.74a.6.6 0 1 0 -.59-.6.59.59 0 0 0 .59.6z"/><path d="m52.44 4.11a.21.21 0 0 0 .21-.22v-2a.2.2 0 0 1 .2-.22h1.21a.22.22 0 0 1 .22.22v7.11c0 1.52-1 2.05-3.09 2.05-1.86 0-2.72-.68-2.72-2.05v-2.91c0-1.29.93-2 2.57-2 .58-.09.96.02 1.4.02zm-2.34 2.45v2.25c0 .57.24.89 1.15.89h.22c.94 0 1.18-.32 1.18-.89v-3.12c0-.17-.58-.3-1.32-.3-1.08 0-1.23.33-1.23 1.17z"/><path d="m61.25 7.84a.2.2 0 0 1 -.2.22h-3.68v.21c0 .83.7 1.34 1.7 1.34h1.71a.22.22 0 0 1 .23.22v.86a.22.22 0 0 1 -.23.22h-2c-1.74 0-3-.91-3-2.71v-1.73c0-1.37.63-2.43 2.85-2.43 1.89 0 2.67 1 2.67 2.12zm-3.88-1.13c0 .12 0 .19.18.19h1.91a.2.2 0 0 0 .2-.22v-.3c0-.62-.26-1-1.13-1s-1.16.46-1.16 1.07z"/><path d="m63.23 5.56a.21.21 0 0 0 -.23-.22h-.69a.22.22 0 0 1 -.22-.22v-.84a.21.21 0 0 1 .22-.22h.69a.22.22 0 0 0 .21-.23v-1.28a.2.2 0 0 1 .21-.22h1.2a.22.22 0 0 1 .22.22v1.28a.21.21 0 0 0 .21.23h1.17a.21.21 0 0 1 .22.22v.84a.22.22 0 0 1 -.22.22h-1.15a.21.21 0 0 0 -.21.22v3c0 .77.21.92.76.92h.64a.21.21 0 0 1 .2.22v.86a.19.19 0 0 1 -.21.21h-1.56c-1.08 0-1.46-.46-1.46-1.59z"/><path d="m71 3.36c0-1.36.84-1.86 2.21-1.86h.79a.19.19 0 0 1 .21.21v.85a.2.2 0 0 1 -.21.22h-.48c-.69 0-.91.24-.91.93v.12a.21.21 0 0 0 .2.23h1.11a.21.21 0 0 1 .22.22v.84a.21.21 0 0 1 -.22.22h-1.1a.21.21 0 0 0 -.2.22v5a.22.22 0 0 1 -.22.22h-1.21a.21.21 0 0 1 -.21-.22v-5a.21.21 0 0 0 -.2-.22h-.69a.22.22 0 0 1 -.23-.22v-.84a.22.22 0 0 1 .23-.22h.69a.21.21 0 0 0 .2-.23z"/><path d="m74.88 6c0-1.17.72-2 2.88-2s2.86.8 2.86 2v2.88c0 1.18-.73 2-2.86 2s-2.88-.87-2.88-2zm1.63 2.65c0 .64.22 1 1.25 1s1.24-.39 1.24-1.03v-2.39c0-.62-.24-1-1.23-1s-1.25.4-1.25 1z"/><path d="m82.48 5.57a.21.21 0 0 0 -.21-.23h-.44a.22.22 0 0 1 -.22-.22v-.84a.22.22 0 0 1 .22-.22h3.38a1.71 1.71 0 0 1 1.79 1.73v.52a.21.21 0 0 1 -.22.22h-1.1a.2.2 0 0 1 -.21-.22v-.31a.65.65 0 0 0 -.73-.64h-.42a.22.22 0 0 0 -.21.23v3.69a.22.22 0 0 0 .21.23h1.27a.21.21 0 0 1 .22.22v.84a.21.21 0 0 1 -.22.22h-3.76a.22.22 0 0 1 -.22-.22v-.84a.22.22 0 0 1 .22-.22h.44a.21.21 0 0 0 .21-.23z"/><path d="m40.4 10.55a.53.53 0 0 1 .07.2c0 .12-.07.17-.2.17h-1.34c-.15 0-.23 0-.34-.22l-2.23-3.32a.91.91 0 0 1 -.2-.58v-.94a.23.23 0 0 1 .23-.23h1.32a.73.73 0 0 0 .74-.74v-1.23a.73.73 0 0 0 -.74-.75h-2.13a.21.21 0 0 0 -.21.22v7.57a.22.22 0 0 1 -.22.22h-1.26a.21.21 0 0 1 -.2-.22v-7.57a.21.21 0 0 0 -.21-.22h-.48a.22.22 0 0 1 -.23-.22v-.85a.22.22 0 0 1 .23-.22h5.34a1.75 1.75 0 0 1 1.75 1.77v1.69a1.75 1.75 0 0 1 -1.75 1.77h-.51z"/></g><path clip-rule="evenodd" d="m24.15 21.1a12.08 12.08 0 1 1 -12-12.18 12.07 12.07 0 0 1 12 12.18zm-10.22-5.67a1.89 1.89 0 1 1 -2.5-1.77v-1h-1.2v-1.25h1.2v-1.19h1.26v1.19h1.19v1.27h-1.19v1a1.89 1.89 0 0 1 1.24 1.75zm-1.12 0a.76.76 0 1 0 -1.52 0 .76.76 0 0 0 1.52 0zm5 12.72h-11.48v1.33h11.5zm-.06-1.65v.61h-11.49c-1.4-1.25-3.56-3.82-3.45-6.11a2.76 2.76 0 0 1 2-2.63 3.22 3.22 0 0 1 2.74.41 2.41 2.41 0 0 1 1.28-.88 2.83 2.83 0 0 1 3.19.91 2.94 2.94 0 0 1 3.18-.94 2.54 2.54 0 0 1 1.34.93 3.28 3.28 0 0 1 2.8-.4 2.77 2.77 0 0 1 2 2.66c.07 2.29-2.12 4.82-3.54 6.05zm-7.61-1.33c-1.37-1.32-3.08-3.29-3.08-5.11 0-.14 0-.27 0-.41-.91-.66-1.37-.68-1.94-.53a1.29 1.29 0 0 0 -1 1.38c0 1.13.67 2.67 2.58 4.67zm5.5-5.11c0-.9-.39-1.62-1.34-1.62a1.59 1.59 0 0 0 -1.63 1.53 1.35 1.35 0 0 0 1 1.38 8.87 8.87 0 0 1 -1.67 2.41s0 0-.06 0a8.28 8.28 0 0 1 -1.49-1.76 1.43 1.43 0 0 0 1-1.38 1.46 1.46 0 0 0 -.14-.63l-.05-.11-.05-.07a.86.86 0 0 0 -.07-.1 1.52 1.52 0 0 0 -1.06-.57h-.08a1.88 1.88 0 0 0 -.7.09 1.27 1.27 0 0 0 -.83 1.05 1.5 1.5 0 0 0 -.05.37 1.64 1.64 0 0 0 0 .23c.12 1.2 1.33 2.82 3.61 4.84 2.44-2.16 3.66-3.84 3.66-5.05zm4.25.49a1.29 1.29 0 0 0 -1-1.4c-.58-.16-1-.14-2 .52v.39c0 1.82-1.71 3.79-3.08 5.11h3.37c2.06-1.36 2.82-2.89 2.76-4.01z" fill="#3f0" fill-rule="evenodd"/></svg>